# xmcd
#
# Track frame offsets:
#	150
#	18083
#	41566
#	60216
#	75361
#	89003
#	103628
#	122516
#	140051
#	155703
#	173808
#	193650
#
# Disc length: 2818 seconds
#
# Revision: 1
# Processed by: cddbd v1.5.2PL0 Copyright (c) Steve Scherf et al.
# Submitted via: audiograbber 1.81.03
#
DISCID=930b000c
DTITLE=Terry`Flynn - Again Tonight
DYEAR=2006
DGENRE=Country
TTITLE0=Reason To Believe
TTITLE1=Atlanta
TTITLE2=Still In Love With You
TTITLE3=Again Tonight
TTITLE4=Rock Of Ages]s[Cleft Of Ages
TTITLE5=You Don't Love Me Anymore
TTITLE6=Straight Back To You
TTITLE7=If This Ain't Love
TTITLE8=Separate Ways
TTITLE9=Betty Jean
TTITLE10=One More Time
TTITLE11=Every Dog Has His Day
EXTD=
EXTT0=
EXTT1=
EXTT2=
EXTT3=
EXTT4=
EXTT5=
EXTT6=
EXTT7=
EXTT8=
EXTT9=
EXTT10=
EXTT11=
PLAYORDER=
